# xmcd CD database file
#
# Track frame offsets:
#	150
#	17977
#	38078
#	53652
#	68356
#	84440
#	102451
#	119916
#	129602
#	147919
#	163976
#	183897
#	197324
#	211209
#	230632
#	247249
#	262395
#	276269
#
# Disc length: 3857 seconds
#
# Revision: 0
# Processed by: cddbd v1.4PL0 Copyright (c) Steve Scherf et al.
# Submitted via: CDex 1.40Release
#
DISCID=120f0f12
DTITLE=Multi Music Services - Hott Country 091
DYEAR=2003
DGENRE=Country
TTITLE0=Mark Wills - And The Crowd Goes Wild
TTITLE1=Blake Shelton - Playboys Of The Southwestern World
TTITLE2=Chris Cagle - Chicks Dig It
TTITLE3=Chris Ledoux - Horsepower
TTITLE4=Doc Walker - Show Is Free
TTITLE5=Terri Clark - Better Than You
TTITLE6=Rascal Flatts - I Melt
TTITLE7=Tracy Byrd - Drinkin' Bone
TTITLE8=Montgomery Gentry - Hell Yeah
TTITLE9=Warren Brothers - Break The Record
TTITLE10=Sherrie Austin - Streets Of Heaven
TTITLE11=Randy Travis - Pray For Fish
TTITLE12=Dwight Yoakam - Back Of Your Hand
TTITLE13=Emerson Drive - Only God (Could Stop Me)
TTITLE14=Carolyn Dawn Johnson - I'll Think Of You That Way
TTITLE15=Adam Gregory - Sweet Memories
TTITLE16=Phil Vassar - Ultimate Love
TTITLE17=Marty Stuart - If There Ain't There Ought'a Be
EXTD=YEAR: 2003 ID3G: 2
EXTT0=
EXTT1=
EXTT2=
EXTT3=
EXTT4=
EXTT5=
EXTT6=
EXTT7=
EXTT8=
EXTT9=
EXTT10=
EXTT11=
EXTT12=
EXTT13=
EXTT14=
EXTT15=
EXTT16=
EXTT17=
PLAYORDER=
